<svg width="22" height="22" viewBox="0 0 22 22" fill="none" xmlns="http://www.w3.org/2000/svg">
<path d="M19.2522 1.78657H17.327V1.08987C17.3247 0.944411 17.2944 0.800839 17.2377 0.667349C17.1811 0.53386 17.0992 0.413069 16.9968 0.311876C16.8944 0.210682 16.7735 0.131068 16.641 0.077581C16.5084 0.0240939 16.3669 -0.00221859 16.2244 0.000146382H15.463C15.1806 0.00248083 14.9104 0.11804 14.7106 0.321898C14.5109 0.525757 14.3977 0.801577 14.3954 1.08987V1.78657H7.60465V1.08987C7.60014 0.802291 7.48621 0.527782 7.28696 0.324409C7.08772 0.121035 6.81877 0.00474848 6.53703 0.000146382H5.7757C5.49325 0.00248083 5.22303 0.11804 5.0233 0.321898C4.82358 0.525757 4.71036 0.801577 4.70808 1.08987V1.78657H2.80037C2.43115 1.78657 2.06557 1.86109 1.72467 2.00584C1.38378 2.1506 1.0743 2.36274 0.814033 2.63005C0.55377 2.89736 0.347867 3.21457 0.208171 3.56342C0.068476 3.91226 -0.00225292 4.28587 5.46988e-05 4.66272V19.1417C5.46988e-05 19.8998 0.295087 20.6268 0.820247 21.1628C1.34541 21.6989 2.05768 22 2.80037 22H13.6778C14.329 22.0008 14.9739 21.8693 15.5749 21.6132C16.1758 21.3571 16.7208 20.9815 17.1782 20.5083L20.5386 17.0784C21.0022 16.6116 21.3701 16.0552 21.621 15.4419C21.8719 14.8285 22.0007 14.1702 22 13.5055V4.66272C22.0002 3.91214 21.713 3.1912 21.1996 2.65383C20.6862 2.11646 19.9873 1.80522 19.2522 1.78657ZM1.75025 19.1417V7.5746H20.2848V13.3448H15.8043C15.2032 13.3448 14.6267 13.5885 14.2017 14.0223C13.7766 14.4562 13.5378 15.0446 13.5378 15.6582V20.2314H2.80037C2.52098 20.2245 2.25519 20.1069 2.05921 19.9035C1.86324 19.7002 1.75244 19.427 1.75025 19.1417ZM15.9793 19.2578C15.773 19.4657 15.537 19.6404 15.2793 19.7759V15.6582C15.2792 15.587 15.2931 15.5166 15.32 15.451C15.347 15.3854 15.3864 15.3259 15.4361 15.276C15.4858 15.2261 15.5447 15.1869 15.6094 15.1605C15.6742 15.1341 15.7434 15.1211 15.8131 15.1223H19.8473C19.7121 15.3811 19.5412 15.6188 19.3397 15.8279L15.9793 19.2578Z" fill="#2A49FC"/>
</svg>
