<svg width="45" height="44" viewBox="0 0 45 44" fill="none" xmlns="http://www.w3.org/2000/svg">
<path d="M22.2002 44C34.3505 44 44.2002 34.1503 44.2002 22C44.2002 9.84973 34.3505 0 22.2002 0C10.0499 0 0.200195 9.84973 0.200195 22C0.200195 34.1503 10.0499 44 22.2002 44Z" fill="#2A49FC"/>
<path d="M13.8576 10.7933H30.5422C31.9128 10.7933 33.2272 11.3377 34.1964 12.3069C35.1655 13.276 35.71 14.5905 35.71 15.9611V25.6322C35.71 27.0028 35.1655 28.3172 34.1964 29.2864C33.2272 30.2555 31.9128 30.8 30.5422 30.8H21.3214L14.5368 35.8054C14.4588 35.8631 14.3702 35.905 14.276 35.9284C14.1818 35.9519 14.0839 35.9566 13.9879 35.9422C13.8919 35.9278 13.7996 35.8946 13.7165 35.8445C13.6333 35.7944 13.5609 35.7284 13.5032 35.6503C13.4345 35.5586 13.388 35.4522 13.3675 35.3394C13.347 35.2267 13.353 35.1107 13.3851 35.0007L14.6106 30.8074H13.8724C12.5018 30.8074 11.1873 30.2629 10.2182 29.2938C9.24905 28.3246 8.70459 27.0102 8.70459 25.6396V15.9611C8.70459 14.5905 9.24905 13.276 10.2182 12.3069C11.1873 11.3377 12.5018 10.7933 13.8724 10.7933H13.8576ZM30.5422 12.2698H13.8576C12.8786 12.2698 11.9397 12.6587 11.2475 13.3509C10.5552 14.0432 10.1663 14.9821 10.1663 15.9611V25.6322C10.1663 26.6112 10.5552 27.5501 11.2475 28.2423C11.9397 28.9346 12.8786 29.3235 13.8576 29.3235H15.6073H15.814C15.9111 29.3495 16.0018 29.3952 16.0806 29.4575C16.1594 29.5199 16.2247 29.5977 16.2724 29.6862C16.3201 29.7746 16.3492 29.8719 16.358 29.972C16.3667 30.0722 16.355 30.173 16.3234 30.2684L15.4375 33.3101L20.6053 29.5154C20.7433 29.3862 20.9256 29.3149 21.1147 29.3161H30.5422C31.5212 29.3161 32.4601 28.9272 33.1523 28.2349C33.8445 27.5427 34.2334 26.6038 34.2334 25.6248V15.9611C34.2334 14.9821 33.8445 14.0432 33.1523 13.3509C32.4601 12.6587 31.5212 12.2698 30.5422 12.2698Z" fill="white"/>
<path fill-rule="evenodd" clip-rule="evenodd" d="M16.4418 19.1282C16.7718 19.1282 17.0943 19.226 17.3687 19.4094C17.6431 19.5927 17.8569 19.8533 17.9832 20.1581C18.1095 20.463 18.1425 20.7985 18.0782 21.1221C18.0138 21.4458 17.8549 21.7431 17.6215 21.9764C17.3882 22.2097 17.0909 22.3686 16.7673 22.433C16.4436 22.4974 16.1082 22.4644 15.8033 22.3381C15.4984 22.2118 15.2378 21.998 15.0545 21.7236C14.8712 21.4492 14.7733 21.1266 14.7733 20.7966C14.7753 20.3547 14.9517 19.9315 15.2641 19.619C15.5766 19.3065 15.9999 19.1301 16.4418 19.1282Z" fill="white"/>
<path fill-rule="evenodd" clip-rule="evenodd" d="M22.2004 19.1282C22.5304 19.1282 22.853 19.226 23.1274 19.4094C23.4018 19.5927 23.6156 19.8533 23.7419 20.1581C23.8682 20.463 23.9012 20.7985 23.8368 21.1221C23.7725 21.4458 23.6136 21.7431 23.3802 21.9764C23.1469 22.2097 22.8496 22.3686 22.5259 22.433C22.2023 22.4974 21.8668 22.4644 21.5619 22.3381C21.2571 22.2118 20.9965 21.998 20.8132 21.7236C20.6298 21.4492 20.532 21.1266 20.532 20.7966C20.532 20.5775 20.5751 20.3606 20.659 20.1581C20.7428 19.9557 20.8657 19.7718 21.0207 19.6169C21.1756 19.4619 21.3595 19.339 21.5619 19.2552C21.7644 19.1713 21.9813 19.1282 22.2004 19.1282Z" fill="white"/>
<path fill-rule="evenodd" clip-rule="evenodd" d="M27.9959 19.1282C28.3258 19.1282 28.6484 19.226 28.9228 19.4094C29.1972 19.5927 29.411 19.8533 29.5373 20.1581C29.6636 20.463 29.6966 20.7985 29.6322 21.1221C29.5679 21.4458 29.409 21.7431 29.1756 21.9764C28.9423 22.2097 28.645 22.3686 28.3213 22.433C27.9977 22.4974 27.6622 22.4644 27.3574 22.3381C27.0525 22.2118 26.7919 21.998 26.6086 21.7236C26.4252 21.4492 26.3274 21.1266 26.3274 20.7966C26.3274 20.3541 26.5032 19.9298 26.8161 19.6169C27.129 19.304 27.5533 19.1282 27.9959 19.1282Z" fill="white"/>
<path d="M36.7001 43C39.1854 43 41.2001 40.9853 41.2001 38.5C41.2001 36.0147 39.1854 34 36.7001 34C34.2148 34 32.2001 36.0147 32.2001 38.5C32.2001 40.9853 34.2148 43 36.7001 43Z" fill="#1DD64C"/>
</svg>
