<svg width="19" height="25" viewBox="0 0 19 25" fill="none" xmlns="http://www.w3.org/2000/svg">
<path d="M1.55021 14.4985L1.5999 14.5671L1.77877 14.8221L8.65533 24.548C8.75428 24.6876 8.88588 24.8016 9.03898 24.8802C9.19208 24.9589 9.36216 25 9.53478 25C9.7074 25 9.87748 24.9589 10.0306 24.8802C10.1837 24.8016 10.3153 24.6876 10.4142 24.548L17.2809 14.8024L17.4796 14.5279V14.4593C18.4064 13.0439 18.9293 11.4082 18.9933 9.72436C19.0573 8.0405 18.6601 6.37074 17.8434 4.89085C17.0267 3.41095 15.8207 2.17565 14.3524 1.31495C12.8842 0.454253 11.2079 0 9.5 0C7.79212 0 6.11583 0.454253 4.64755 1.31495C3.17927 2.17565 1.97332 3.41095 1.15661 4.89085C0.339907 6.37074 -0.0573414 8.0405 0.00667799 9.72436C0.0706974 11.4082 0.593617 13.0439 1.5204 14.4593L1.55021 14.4985ZM9.5 5.51767C10.4218 5.50926 11.318 5.81725 12.035 6.38892C12.7521 6.96059 13.2454 7.76038 13.4306 8.6514C13.6158 9.54241 13.4813 10.4692 13.0502 11.2732C12.6191 12.0772 11.9182 12.7083 11.0674 13.0586C10.2166 13.4088 9.26892 13.4564 8.38648 13.1932C7.50404 12.93 6.74178 12.3724 6.23016 11.6157C5.71854 10.8591 5.48939 9.95055 5.58193 9.04558C5.67447 8.14062 6.08295 7.29553 6.73745 6.65498C7.48271 5.92569 8.49009 5.51684 9.53975 5.51767H9.5Z" fill="#2A49FC"/>
</svg>
