<svg width="211" height="110" viewBox="0 0 211 110" fill="none" xmlns="http://www.w3.org/2000/svg">
<path d="M58.8602 4.06118C58.8768 4.08709 58.8997 4.10844 58.9267 4.1233C58.9538 4.13815 58.984 4.14605 59.0149 4.14627H59.0768C60.5875 3.64775 62.1413 3.29038 63.7181 3.07876C63.7587 3.07069 63.7957 3.0498 63.8235 3.01917C63.8514 2.98853 63.8686 2.94977 63.8728 2.90858C63.8728 2.42897 63.927 1.9571 63.9579 1.49297C63.9888 1.02883 64.012 0.64979 64.0353 0.208862C64.0358 0.157218 64.0164 0.107361 63.9811 0.0696215C63.9526 0.0326437 63.9111 0.00778412 63.8651 1.27743e-06H63.1611C63.1165 -0.00016773 63.0735 0.0164389 63.0405 0.0465282C63.0075 0.0766176 62.9871 0.117992 62.9832 0.162448L62.844 1.29958C62.6583 1.29958 62.4495 1.33826 62.2406 1.37693L62.1942 1.11392C62.14 0.835444 62.0936 0.541492 62.0549 0.270747C62.0511 0.228344 62.0315 0.188933 61.9999 0.160291C61.9684 0.13165 61.9273 0.115859 61.8848 0.116035C61.723 0.11707 61.5619 0.137852 61.4052 0.17792L61.1886 0.224333C61.1426 0.231948 61.1015 0.257278 61.074 0.294882C61.0465 0.332487 61.0349 0.379368 61.0416 0.425458C61.0416 0.758088 61.1344 1.1526 61.1808 1.609L60.941 1.67089L60.6239 1.75598C60.4657 1.40703 60.3313 1.04779 60.2216 0.680732C60.2111 0.639885 60.187 0.603839 60.1532 0.57853C60.1195 0.553221 60.0781 0.540158 60.036 0.541492C59.8727 0.549785 59.7126 0.589168 59.5641 0.657526L59.4094 0.711675C59.3672 0.72417 59.3308 0.751253 59.3067 0.788091C59.2826 0.82493 59.2724 0.869128 59.2779 0.9128C59.3243 1.22222 59.3862 1.46976 59.4481 1.74824C59.4481 1.85654 59.5022 1.97257 59.5254 2.10408C59.4277 2.13067 59.3321 2.16428 59.2392 2.20464L58.9994 2.32068C58.922 2.15823 58.8215 1.97257 58.7209 1.78692C58.6204 1.60127 58.543 1.45429 58.4811 1.31505C58.4657 1.28514 58.4424 1.25998 58.4138 1.24227C58.3852 1.22456 58.3523 1.21495 58.3187 1.21449C58.1338 1.23092 57.9546 1.28628 57.7926 1.37693C57.752 1.39414 57.7192 1.42583 57.7006 1.46586C57.682 1.50588 57.679 1.55139 57.6921 1.59353C57.9774 2.47069 58.3836 3.30383 58.8988 4.06892" fill="#BBBFC9"/>
<path d="M144.184 2.89311C144.185 2.9352 144.202 2.9754 144.23 3.00656C144.258 3.03772 144.297 3.05782 144.339 3.06329C145.916 3.27249 147.471 3.63255 148.98 4.13854H149.042C149.073 4.13831 149.103 4.13042 149.13 4.11556C149.157 4.1007 149.18 4.07936 149.196 4.05344C149.711 3.28659 150.119 2.45398 150.411 1.57806C150.421 1.53591 150.416 1.49166 150.398 1.45238C150.38 1.41311 150.349 1.3811 150.31 1.36146C150.148 1.27304 149.969 1.21782 149.784 1.19902C149.751 1.19859 149.717 1.20783 149.689 1.22564C149.66 1.24345 149.637 1.2691 149.622 1.29958L149.374 1.77145L149.065 2.32067L148.802 2.23558C148.706 2.19635 148.608 2.16277 148.508 2.13502C148.508 2.00352 148.562 1.88748 148.585 1.77918C148.66 1.50463 148.717 1.22558 148.756 0.943741C148.76 0.900298 148.749 0.856787 148.725 0.820274C148.701 0.783762 148.665 0.756394 148.624 0.742616L148.477 0.688467C148.335 0.624719 148.183 0.585485 148.028 0.572433C147.987 0.57145 147.947 0.584795 147.915 0.610189C147.882 0.635583 147.859 0.671453 147.851 0.711673C147.738 1.07888 147.601 1.43811 147.441 1.78692L147.131 1.70183L146.884 1.63994C146.93 1.18354 146.984 0.789029 147.023 0.456399C147.027 0.433449 147.027 0.409836 147.022 0.387031C147.017 0.364226 147.007 0.342719 146.993 0.32385C146.979 0.304981 146.962 0.289154 146.942 0.277355C146.921 0.265557 146.899 0.258041 146.876 0.255274L146.682 0.208861C146.527 0.158912 146.366 0.127749 146.203 0.116034C146.158 0.115415 146.115 0.130671 146.081 0.159046C146.047 0.187421 146.025 0.227042 146.017 0.270745C146.017 0.541491 145.932 0.835443 145.878 1.11392C145.878 1.20675 145.878 1.29184 145.878 1.37693C145.661 1.33826 145.46 1.31505 145.267 1.29958C145.267 0.920534 145.174 0.52602 145.135 0.162447C145.128 0.117989 145.106 0.0774339 145.072 0.0477776C145.038 0.0181214 144.995 0.00122393 144.95 0L144.246 0C144.197 0.00143219 144.15 0.0206865 144.114 0.0541491C144.082 0.0936125 144.063 0.142394 144.06 0.19339C144.06 0.634318 144.114 1.05204 144.145 1.4775C144.176 1.90295 144.207 2.4135 144.23 2.89311" fill="#BBBFC9"/>
<path d="M162.942 53.5457L157.195 46.282L162.904 38.5465L159.732 38.5929C156.96 38.6275 154.194 38.8575 151.455 39.2813C152.516 37.9098 153.657 36.6027 154.874 35.3671C154.912 35.3588 154.945 35.3367 154.967 35.3052C154.977 35.2808 154.983 35.2545 154.983 35.2279C154.983 35.2013 154.977 35.1749 154.967 35.1505C154.913 34.9804 154.882 34.7792 154.843 34.5936C154.804 34.4079 154.797 34.3538 154.773 34.2455H154.82C154.922 34.2522 155.022 34.2677 155.122 34.2919C155.158 34.301 155.196 34.2984 155.231 34.2845C155.265 34.2706 155.295 34.2461 155.315 34.2145C155.334 34.1845 155.345 34.1496 155.345 34.114C155.345 34.0783 155.334 34.0434 155.315 34.0134C154.82 33.2399 154.859 32.9768 154.905 32.8995C154.951 32.8221 155.122 32.7912 155.245 32.7912C155.386 32.794 155.525 32.8095 155.663 32.8376C155.694 32.8444 155.726 32.8429 155.755 32.8334C155.785 32.8239 155.812 32.8067 155.833 32.7835C155.853 32.7586 155.866 32.7297 155.873 32.6989C155.88 32.6681 155.879 32.6362 155.872 32.6055C155.697 31.8862 155.668 31.1393 155.787 30.4086C155.845 29.8949 155.876 29.3785 155.88 28.8615C155.88 28.8326 155.873 28.8041 155.859 28.7784C155.846 28.7528 155.826 28.7309 155.802 28.7145C155.777 28.7032 155.749 28.6974 155.721 28.6974C155.693 28.6974 155.665 28.7032 155.64 28.7145C155.183 28.8661 154.706 28.9495 154.224 28.9621C152.863 28.9621 152.569 27.941 152.19 26.6414C151.967 25.6273 151.52 24.6758 150.882 23.8566C151.7 24.0093 152.544 23.947 153.33 23.6758C154.117 23.4046 154.819 22.9338 155.369 22.3095C155.928 21.6111 156.33 20.8005 156.548 19.9329C156.765 19.0652 156.793 18.1608 156.63 17.2813C156.219 16.4153 155.724 15.5914 155.152 14.8214C153.714 12.6864 151.749 9.75463 152.43 8.46278C152.669 8.01412 153.242 7.78205 154.139 7.76658C154.398 8.20227 154.537 8.69869 154.541 9.2054C154.545 9.78774 154.703 10.3588 154.998 10.8608C155.012 10.8851 155.033 10.9055 155.057 10.9203C155.081 10.9351 155.109 10.9439 155.137 10.9459C155.165 10.9488 155.194 10.9454 155.22 10.936C155.247 10.9267 155.271 10.9116 155.292 10.8918C155.382 10.764 155.44 10.6166 155.461 10.4619C155.483 10.3072 155.467 10.1496 155.415 10.0022C155.346 9.54577 155.323 9.22861 155.678 9.03522C155.764 9.21314 155.98 9.38332 156.452 9.38332C156.975 9.35485 157.493 9.27189 157.999 9.13578C158.217 9.07399 158.439 9.03001 158.664 9.00428C158.708 9.00465 158.75 8.98912 158.783 8.96062C158.815 8.93212 158.837 8.89262 158.842 8.84956C158.882 8.695 158.887 8.53346 158.856 8.37682C158.825 8.22019 158.76 8.07246 158.664 7.9445C158.56 7.81955 158.428 7.71987 158.279 7.65289C158.131 7.58592 157.969 7.55339 157.806 7.55772C157.48 7.56982 157.157 7.61125 156.839 7.68149H156.792C156.784 7.64847 156.784 7.61395 156.792 7.58093C156.792 7.34113 157.179 6.97755 157.566 6.65266C157.892 6.38861 158.156 6.0558 158.34 5.67798C158.352 5.65284 158.359 5.625 158.359 5.59675C158.359 5.5685 158.352 5.54066 158.34 5.51553C158.324 5.4906 158.303 5.47026 158.277 5.45665C158.251 5.44303 158.222 5.43665 158.193 5.43817C157.343 5.48393 156.492 5.35493 155.694 5.05913C155.346 4.9431 154.92 4.80385 154.302 4.63367H154.216C152.491 4.98177 151.447 5.64703 151.022 6.66039C150.202 8.57882 151.934 11.3017 153.342 13.5296C153.856 14.2976 154.313 15.1016 154.712 15.9354C155.032 16.6245 155.174 17.3834 155.124 18.1418C155.074 18.9003 154.834 19.6339 154.425 20.275C154.122 20.7631 153.704 21.1698 153.208 21.4596C152.712 21.7495 152.153 21.9138 151.579 21.9382C150.287 21.9382 149.173 21.0718 148.446 19.4783C147.86 18.2034 147.196 16.966 146.458 15.7729C146.628 15.564 146.96 15.0844 147.688 14.0092C148.082 13.4445 148.995 12.0985 149.08 11.8819C149.792 10.1414 150.441 6.16532 149.181 4.44802C149.157 4.41651 149.125 4.39237 149.088 4.3784C147.103 3.76897 145.044 3.43324 142.969 3.38051C142.482 3.38051 141.994 3.38051 141.522 3.45013C141.48 3.45364 141.441 3.47188 141.411 3.50162C141.382 3.53136 141.363 3.57067 141.36 3.61258C141.274 3.93533 141.256 4.27238 141.306 4.60253C141.357 4.93268 141.475 5.2488 141.654 5.531C141.845 5.69775 142.069 5.82193 142.312 5.89529C142.555 5.96865 142.81 5.9895 143.062 5.95646H143.719H144.408C144.444 6.21307 144.444 6.4734 144.408 6.73001C143.864 6.56599 143.297 6.49025 142.729 6.50568C142.28 6.50568 141.809 6.50568 141.352 6.56757C140.896 6.62945 140.439 6.62945 139.991 6.62945H139.48C139.463 6.62939 139.447 6.63362 139.432 6.64173C139.417 6.64985 139.404 6.66159 139.395 6.67587C139.385 6.69086 139.38 6.70831 139.38 6.72615C139.38 6.74398 139.385 6.76144 139.395 6.77643C139.746 7.23582 140.233 7.57176 140.787 7.73564H140.857C141.977 7.31376 143.143 7.02555 144.33 6.87699C144.176 7.52678 143.65 7.65055 143.108 7.80526C142.567 7.95997 141.754 8.14563 141.94 9.23634C141.946 9.27072 141.961 9.30274 141.985 9.32874C142.008 9.35473 142.038 9.37365 142.072 9.38332C142.164 9.41289 142.261 9.42598 142.358 9.422C142.635 9.4083 142.909 9.35355 143.17 9.25955C143.38 9.18544 143.598 9.13864 143.82 9.12031C143.951 9.12031 144.183 9.12031 144.245 9.64633C143.602 9.98886 142.877 10.1493 142.149 10.1105H141.716C141.174 10.062 140.629 10.1633 140.14 10.4034C139.652 10.6435 139.239 11.0131 138.946 11.4719C138.496 10.8733 138.013 10.3 137.5 9.75463C136.68 8.93206 135.989 7.99064 135.45 6.96208C135.04 6.03381 135.264 5.80948 135.566 5.50006C135.751 5.3378 135.894 5.13387 135.984 4.90518C136.074 4.67649 136.109 4.42962 136.084 4.18501C136.083 4.15443 136.074 4.12464 136.058 4.09877C136.042 4.07291 136.019 4.05193 135.991 4.03803C135.577 3.77735 135.08 3.68337 134.599 3.77502C134.553 3.77285 134.508 3.78856 134.473 3.81885C134.439 3.84913 134.417 3.89165 134.413 3.93747C134.374 4.21116 134.39 4.48992 134.46 4.75744C134.46 4.91215 134.506 4.93536 133.972 5.36082C133.763 5.2829 133.58 5.14823 133.444 4.97194C133.307 4.79566 133.222 4.58475 133.199 4.36293C133.083 3.76729 132.889 3.3341 131.513 3.17938C131.485 3.17683 131.457 3.18055 131.431 3.19026C131.405 3.19997 131.381 3.21542 131.362 3.23548C131.342 3.25553 131.328 3.27968 131.319 3.30612C131.31 3.33257 131.308 3.36063 131.311 3.38824C131.405 4.03047 131.617 4.64961 131.938 5.21384C132.153 5.59461 132.322 5.99973 132.441 6.42059C132.216 6.38485 131.988 6.36674 131.76 6.36644C130.569 6.36644 130.298 7.01623 130.283 7.58866C130.283 7.61371 130.288 7.6385 130.297 7.66154C130.307 7.68459 130.322 7.70541 130.34 7.72275C130.358 7.7401 130.379 7.75361 130.403 7.76247C130.426 7.77133 130.451 7.77536 130.476 7.77432H130.538C130.665 7.73009 130.798 7.70913 130.932 7.71243C131.487 7.79751 132.016 8.00739 132.478 8.32629C132.941 8.64519 133.324 9.06478 133.601 9.5535C133.851 9.87914 134.016 10.261 134.084 10.6656C134.151 11.0703 134.118 11.4852 133.988 11.8742C133.963 11.9016 133.949 11.9375 133.949 11.9747C133.949 11.9991 133.954 12.0233 133.963 12.0458C133.973 12.0683 133.986 12.0888 134.004 12.106C134.021 12.1233 134.041 12.1369 134.064 12.1463C134.086 12.1556 134.111 12.1604 134.135 12.1604H134.197C134.423 12.0758 134.66 12.0263 134.901 12.0134C135.241 12.0134 135.295 12.2068 135.342 13.0577C135.342 13.166 135.342 13.2821 135.342 13.3981C135.344 13.4343 135.357 13.469 135.379 13.4979C135.401 13.5267 135.431 13.5485 135.465 13.5605C135.5 13.5738 135.539 13.5757 135.575 13.566C135.611 13.5562 135.643 13.5354 135.667 13.5064C135.945 13.1815 135.976 13.1428 136.316 13.1428C136.5 13.3839 136.609 13.6737 136.63 13.9763C136.651 14.2789 136.582 14.5808 136.432 14.8446C135.775 16.4382 133.593 18.2019 132.402 18.4107C132.441 18.2401 132.444 18.0632 132.41 17.8914C132.377 17.7196 132.308 17.5567 132.209 17.4129C131.935 17.0776 131.44 17.0235 130.723 17.2504C130.693 17.2619 130.666 17.2806 130.645 17.3048C130.623 17.3291 130.608 17.3582 130.6 17.3896C130.594 17.4203 130.597 17.4517 130.606 17.4814C130.615 17.511 130.632 17.5379 130.654 17.5598C131.01 17.9002 130.94 18.0704 130.84 18.2947C130.693 18.6892 130.638 19.0683 131.474 19.5092C131.438 19.6271 131.42 19.7496 131.42 19.8728C131.266 19.9771 131.092 20.0482 130.909 20.0816C130.391 20.2131 129.749 20.3756 129.849 21.7525C129.851 21.79 129.865 21.8259 129.889 21.8551C129.912 21.8843 129.945 21.9052 129.981 21.915C130.024 21.9264 130.069 21.9264 130.112 21.915C130.314 21.8376 132.247 21.2652 132.874 21.1414C132.886 21.3886 132.99 21.6223 133.166 21.7958C133.343 21.9693 133.578 22.0699 133.825 22.0774C134.031 22.0772 134.232 22.0191 134.406 21.9096C134.58 21.8001 134.719 21.6438 134.808 21.4586C134.889 21.2642 134.914 21.0508 134.88 20.8429C134.846 20.6349 134.754 20.4408 134.614 20.2828C135.34 20.071 136.094 19.9693 136.85 19.9811H136.92C136.952 19.9919 136.988 19.9926 137.021 19.9829C137.054 19.9733 137.084 19.9537 137.105 19.9269C137.122 19.8975 137.131 19.8642 137.131 19.8302C137.131 19.7963 137.122 19.7629 137.105 19.7335C136.835 19.0683 137.415 18.7047 138.405 18.1864C138.622 18.0781 138.846 17.9621 139.055 17.8383C140.317 19.3329 141.883 20.5408 143.65 21.3812C144.623 21.8997 145.569 22.4704 146.481 23.0908C148.469 24.46 148.214 26.9586 147.966 29.3721C147.818 30.4224 147.78 31.4853 147.85 32.5436C147.855 32.5814 147.87 32.617 147.895 32.6459C147.92 32.6748 147.953 32.6957 147.989 32.7061C148.026 32.7152 148.064 32.7126 148.099 32.6987C148.133 32.6848 148.163 32.6603 148.183 32.6287C148.348 32.3215 148.581 32.0568 148.866 31.8555C149.151 31.6541 149.478 31.5216 149.823 31.4684C150.089 31.4952 150.343 31.5905 150.562 31.7451C150.78 31.8996 150.954 32.1082 151.068 32.3503C151.323 32.7766 151.47 33.259 151.496 33.7553C151.522 34.2516 151.425 34.7466 151.215 35.197C151.033 35.4942 150.766 35.7307 150.45 35.8767C150.133 36.0226 149.78 36.0714 149.436 36.0169C149.304 35.7909 149.121 35.5986 148.903 35.455C148.684 35.3114 148.435 35.2204 148.175 35.1892C147.881 35.1892 147.355 35.3362 147.162 36.3341C147.158 36.3571 147.158 36.3806 147.162 36.4037C147.161 36.4277 147.164 36.4517 147.173 36.4742C147.181 36.4967 147.194 36.5172 147.211 36.5345C147.228 36.5519 147.247 36.5657 147.27 36.5751C147.292 36.5845 147.315 36.5894 147.34 36.5894C147.78 36.5352 148.067 36.5894 148.167 36.7595C148.268 36.9297 148.306 37.2237 147.866 38.0669C147.854 38.1047 147.854 38.145 147.866 38.1829C147.864 38.2069 147.868 38.2309 147.877 38.2533C147.885 38.2758 147.898 38.2964 147.915 38.3137C147.931 38.3311 147.951 38.3449 147.974 38.3543C147.996 38.3637 148.019 38.3686 148.043 38.3685H148.121C149.575 37.7574 150.534 38.0591 151.06 39.351C142.548 40.7209 134.435 43.9224 127.281 48.7342V2.43677H80.6201V49.9564C70.6633 42.7322 58.7139 38.768 46.4134 38.6083L43.2418 38.5619L48.9507 46.2975L43.2031 53.5612L46.3902 53.6154C52.4652 53.7063 58.4562 55.0493 63.9886 57.5605L61.9078 59.8193L63.0758 60.8868C74.0181 70.8326 88.2742 76.3434 103.061 76.3434C117.848 76.3434 132.104 70.8326 143.046 60.8868L144.222 59.8193L142.133 57.5605C147.666 55.0493 153.657 53.7063 159.732 53.6154L162.942 53.5457ZM140.857 7.51904C140.917 7.48874 140.983 7.47036 141.05 7.46489L140.88 7.52678M144.57 4.43255C144.354 4.43255 144.122 4.29331 144.044 3.91426L144.562 3.96068H144.98C145.013 3.99259 145.053 4.01643 145.096 4.0303C145.056 4.13866 144.985 4.23263 144.891 4.30016C144.797 4.36768 144.686 4.4057 144.57 4.40934M82.3065 4.07671H125.626V49.91C124.28 50.8847 122.98 51.9058 121.758 53.0043L119.337 55.0851L121.464 57.4058C115.703 60.0114 109.453 61.3591 103.131 61.3591C96.8081 61.3591 90.5581 60.0114 84.7973 57.4058L86.9246 55.0851L84.5034 53.0043C83.7917 52.3931 83.0646 51.7898 82.3297 51.2173L82.3065 4.07671ZM132.278 51.4958C129.581 53.77 126.63 55.7246 123.483 57.3207L121.673 55.3559L132.278 51.4958ZM84.4647 55.3636L82.6546 57.3284C79.5142 55.7271 76.5682 53.77 73.8747 51.4958L84.4647 55.3636ZM46.4134 52.0218L50.7531 46.5296C50.8032 46.4656 50.8305 46.3866 50.8305 46.3052C50.8305 46.2239 50.8032 46.1449 50.7531 46.0809L46.4134 40.1787C60.0181 40.3345 73.1294 45.2968 83.4281 54.1878L72.2889 50.1266H72.2116H72.1574H72.0878H72.0027L71.9253 50.1808L66.1391 56.4698L65.9612 56.6632C59.8852 53.7048 53.2325 52.1202 46.4753 52.0218M103.123 74.7567C88.7121 74.7811 74.8134 69.4142 64.1588 59.711L66.0927 57.6069L66.3557 57.3284L66.4176 57.2588L66.611 57.0422L66.6651 56.9881L72.1806 50.993C75.1857 53.7203 78.5386 56.0379 82.1518 57.8854L82.4921 58.0556L82.8402 58.2258C89.1431 61.31 96.0673 62.9133 103.084 62.9133C110.101 62.9133 117.025 61.31 123.328 58.2258L123.676 58.0556L124.017 57.8854C127.629 56.036 130.981 53.7186 133.988 50.993L139.503 56.9881L139.558 57.0422L139.751 57.2588L139.821 57.3284L140.076 57.6069L142.01 59.711C131.364 69.4039 117.481 74.77 103.084 74.7567M140.215 56.7019L140.037 56.5085L134.251 50.2194L134.174 50.1653H134.088H134.019H133.872L122.733 54.2265C133.031 45.3355 146.143 40.3732 159.747 40.2173L155.377 46.1196C155.328 46.1841 155.301 46.2629 155.301 46.3439C155.301 46.4249 155.328 46.5037 155.377 46.5683L159.724 52.0605C152.967 52.1588 146.314 53.7435 140.238 56.7019" fill="#BBBFC9"/>
<path d="M121.1 8.81854H87.9303C87.7251 8.81854 87.5284 8.90004 87.3833 9.04511C87.2382 9.19018 87.1567 9.38694 87.1567 9.5921V47.6434C87.1588 49.1158 87.7446 50.5274 88.7858 51.5685C89.8269 52.6097 91.2385 53.1955 92.7109 53.1976H98.3811C99.7584 53.1976 101.079 53.7442 102.054 54.7174C103.029 55.6906 103.577 57.0108 103.579 58.3881C103.626 58.5488 103.724 58.69 103.858 58.7904C103.992 58.8908 104.155 58.9451 104.322 58.9451C104.489 58.9451 104.652 58.8908 104.786 58.7904C104.92 58.69 105.018 58.5488 105.065 58.3881C105.067 57.0108 105.615 55.6906 106.59 54.7174C107.565 53.7442 108.886 53.1976 110.263 53.1976H116.258C117.73 53.1955 119.142 52.6097 120.183 51.5685C121.224 50.5274 121.81 49.1158 121.812 47.6434V9.56116C121.812 9.356 121.731 9.15924 121.586 9.01417C121.441 8.8691 121.244 8.7876 121.039 8.7876M120.265 47.6125C120.267 48.5484 119.944 49.456 119.352 50.1807C118.353 49.9693 117.389 49.615 116.49 49.1287C115.472 48.5775 114.333 48.2889 113.175 48.2889C112.018 48.2889 110.879 48.5775 109.861 49.1287C108.28 49.9619 106.519 50.3974 104.732 50.3974C102.945 50.3974 101.184 49.9619 99.6033 49.1287C98.5831 48.5802 97.443 48.2932 96.2847 48.2932C95.1265 48.2932 93.9863 48.5802 92.9662 49.1287C91.939 49.6986 90.8218 50.0884 89.6631 50.2813C89.0224 49.543 88.6707 48.5977 88.6729 47.6202V46.3206C89.5779 46.2548 90.4573 45.9907 91.2489 45.5471C92.8316 44.7189 94.5913 44.2863 96.3776 44.2863C98.1638 44.2863 99.9236 44.7189 101.506 45.5471C102.524 46.0982 103.663 46.3868 104.821 46.3868C105.978 46.3868 107.118 46.0982 108.136 45.5471C109.718 44.7189 111.478 44.2863 113.264 44.2863C115.051 44.2863 116.81 44.7189 118.393 45.5471C119.007 45.8886 119.67 46.1339 120.358 46.2742L120.265 47.6125ZM120.265 42.7391C118.943 42.5892 117.661 42.1875 116.49 41.5555C115.47 41.0098 114.332 40.7242 113.175 40.7242C112.019 40.7242 110.88 41.0098 109.861 41.5555C108.28 42.3888 106.519 42.8243 104.732 42.8243C102.945 42.8243 101.184 42.3888 99.6033 41.5555C98.5815 41.0124 97.4419 40.7283 96.2847 40.7283C95.1275 40.7283 93.988 41.0124 92.9662 41.5555C91.6188 42.301 90.1182 42.7271 88.5801 42.8009V38.7398C89.5333 38.6781 90.4584 38.3918 91.2798 37.9043C92.8625 37.0761 94.6222 36.6436 96.4085 36.6436C98.1948 36.6436 99.9545 37.0761 101.537 37.9043C102.555 38.4554 103.694 38.744 104.852 38.744C106.009 38.744 107.149 38.4554 108.167 37.9043C109.749 37.0761 111.509 36.6436 113.295 36.6436C115.082 36.6436 116.841 37.0761 118.424 37.9043C119.035 38.2618 119.698 38.5227 120.389 38.6779L120.265 42.7391ZM98.7214 24.9472C98.6976 24.9219 98.6688 24.9018 98.6369 24.888C98.6049 24.8743 98.5705 24.8672 98.5358 24.8672C98.501 24.8672 98.4666 24.8743 98.4347 24.888C98.4028 24.9018 98.374 24.9219 98.3501 24.9472L98.2418 25.0478L99.9204 22.2707L102.674 21.1181L104.995 21.2419L107.726 22.789L109.079 24.4754L110.696 26.301L110.766 26.3706L112.166 27.5386L113.179 29.5576C113.214 29.6293 113.264 29.6927 113.326 29.7433L114.974 31.0583L116.196 32.8066H92.2777L94.0182 30.0991L97.0505 27.1828C97.0876 27.1524 97.119 27.1158 97.1434 27.0745L97.3522 26.7264C97.412 26.7195 97.4685 26.6953 97.5147 26.6568L98.8143 25.3572C98.8634 25.3079 98.891 25.2412 98.891 25.1716C98.891 25.102 98.8634 25.0352 98.8143 24.9859M120.358 32.8066H117.403C117.419 32.6732 117.386 32.5386 117.31 32.4275L115.856 30.3621C115.827 30.3175 115.793 30.276 115.755 30.2384L114.138 28.9465L113.133 26.9353C113.095 26.8695 113.048 26.8095 112.994 26.7574L111.508 25.5274L110.031 23.8333L108.615 22.0696C108.571 22.0174 108.519 21.973 108.461 21.9381L105.521 20.2595C105.446 20.2155 105.361 20.1916 105.273 20.1898L102.698 20.0506C102.613 20.044 102.528 20.0572 102.45 20.0893L99.4099 21.3657C99.3003 21.4068 99.2095 21.4866 99.1546 21.59L96.2306 26.4479L93.206 29.3488C93.1736 29.3787 93.145 29.4124 93.1209 29.4493L91.1483 32.5436C91.0935 32.6347 91.0641 32.7389 91.0632 32.8453H88.6729V10.3038H120.389L120.358 32.8066Z" fill="#BBBFC9"/>
<path d="M98.6055 25.8525L97.5303 26.9277C97.505 26.9516 97.4848 26.9803 97.4711 27.0123C97.4573 27.0442 97.4502 27.0786 97.4502 27.1134C97.4502 27.1481 97.4573 27.1825 97.4711 27.2144C97.4848 27.2464 97.505 27.2751 97.5303 27.299C97.5538 27.3246 97.5825 27.3447 97.6146 27.3581C97.6466 27.3715 97.6812 27.3777 97.7159 27.3764C97.7505 27.3767 97.7848 27.37 97.8167 27.3567C97.8486 27.3434 97.8775 27.3238 97.9016 27.299L99.0155 26.2238C99.0423 26.2 99.0639 26.1709 99.0791 26.1384C99.0943 26.106 99.1026 26.0707 99.1037 26.0349C99.1047 25.9991 99.0985 25.9634 99.0852 25.9301C99.072 25.8968 99.0521 25.8665 99.0268 25.8412C99.0014 25.8159 98.9712 25.796 98.9378 25.7827C98.9045 25.7695 98.8689 25.7632 98.833 25.7643C98.7972 25.7653 98.762 25.7737 98.7295 25.7889C98.697 25.804 98.668 25.8257 98.6442 25.8525" fill="#BBBFC9"/>
<path d="M98.6057 26.7728L97.9869 27.3839C97.9377 27.4332 97.9102 27.5 97.9102 27.5696C97.9102 27.6392 97.9377 27.7059 97.9869 27.7552C98.0362 27.8044 98.1029 27.8319 98.1725 27.8319C98.2421 27.8319 98.3089 27.8044 98.3582 27.7552L98.977 27.1441C99.0261 27.0948 99.0537 27.0281 99.0537 26.9585C99.0537 26.8889 99.0261 26.8221 98.977 26.7728C98.9532 26.7475 98.9244 26.7274 98.8925 26.7136C98.8605 26.6998 98.8261 26.6927 98.7914 26.6927C98.7566 26.6927 98.7222 26.6998 98.6903 26.7136C98.6584 26.7274 98.6296 26.7475 98.6057 26.7728Z" fill="#BBBFC9"/>
<path d="M102.667 30.4318C102.737 30.4287 102.804 30.3982 102.852 30.3467L104.144 29.0548C104.169 29.031 104.19 29.0022 104.203 28.9703C104.217 28.9383 104.224 28.9039 104.224 28.8692C104.224 28.8344 104.217 28.8 104.203 28.7681C104.19 28.7362 104.169 28.7074 104.144 28.6835C104.095 28.6344 104.028 28.6068 103.959 28.6068C103.889 28.6068 103.822 28.6344 103.773 28.6835L102.481 29.9754C102.432 30.0247 102.404 30.0914 102.404 30.161C102.404 30.2306 102.432 30.2974 102.481 30.3467C102.505 30.3725 102.533 30.3934 102.565 30.408C102.597 30.4226 102.632 30.4307 102.667 30.4318Z" fill="#BBBFC9"/>
<path d="M103.935 29.5498L102.883 30.6251C102.858 30.649 102.838 30.6777 102.824 30.7096C102.81 30.7416 102.803 30.776 102.803 30.8107C102.803 30.8455 102.81 30.8799 102.824 30.9118C102.838 30.9438 102.858 30.9725 102.883 30.9964C102.906 31.0214 102.933 31.0412 102.964 31.0546C102.994 31.0679 103.028 31.0745 103.061 31.0738C103.097 31.0743 103.132 31.0677 103.166 31.0544C103.199 31.0411 103.229 31.0214 103.255 30.9964L104.322 29.9212C104.349 29.8973 104.371 29.8683 104.386 29.8358C104.401 29.8034 104.409 29.7681 104.41 29.7323C104.411 29.6965 104.405 29.6608 104.392 29.6275C104.379 29.5942 104.359 29.5639 104.333 29.5386C104.308 29.5132 104.278 29.4933 104.244 29.4801C104.211 29.4669 104.175 29.4606 104.14 29.4617C104.104 29.4627 104.069 29.4711 104.036 29.4862C104.004 29.5014 103.975 29.5231 103.951 29.5498" fill="#BBBFC9"/>
<path d="M103.935 30.4627L103.324 31.0815C103.287 31.1183 103.262 31.1651 103.252 31.2161C103.242 31.267 103.247 31.3198 103.267 31.3677C103.287 31.4157 103.321 31.4568 103.364 31.4857C103.407 31.5146 103.458 31.5301 103.509 31.5302C103.578 31.5292 103.643 31.5046 103.695 31.4606L104.306 30.834C104.333 30.8102 104.355 30.7811 104.37 30.7487C104.385 30.7162 104.393 30.681 104.394 30.6451C104.395 30.6093 104.389 30.5736 104.376 30.5403C104.363 30.507 104.343 30.4768 104.317 30.4514C104.292 30.4261 104.262 30.4062 104.229 30.393C104.195 30.3797 104.16 30.3734 104.124 30.3745C104.088 30.3756 104.053 30.3839 104.02 30.3991C103.988 30.4143 103.959 30.4359 103.935 30.4627Z" fill="#BBBFC9"/>
<path d="M106.944 27.0745C106.979 27.0749 107.013 27.0682 107.045 27.0549C107.077 27.0416 107.106 27.022 107.13 26.9972L108.422 25.7053C108.449 25.6815 108.47 25.6525 108.485 25.62C108.501 25.5875 108.509 25.5523 108.51 25.5165C108.511 25.4806 108.505 25.445 108.492 25.4117C108.478 25.3784 108.458 25.3481 108.433 25.3228C108.408 25.2974 108.378 25.2775 108.344 25.2643C108.311 25.2511 108.275 25.2448 108.239 25.2458C108.204 25.2469 108.168 25.2553 108.136 25.2704C108.103 25.2856 108.074 25.3072 108.051 25.334L106.751 26.6104C106.726 26.6343 106.706 26.663 106.692 26.695C106.678 26.7269 106.671 26.7613 106.671 26.796C106.671 26.8308 106.678 26.8652 106.692 26.8971C106.706 26.9291 106.726 26.9578 106.751 26.9817C106.8 27.0311 106.867 27.0589 106.937 27.0591" fill="#BBBFC9"/>
<path d="M108.213 26.185L107.146 27.2525C107.12 27.277 107.1 27.3065 107.086 27.339C107.072 27.3716 107.065 27.4066 107.065 27.442C107.065 27.4774 107.072 27.5124 107.086 27.545C107.1 27.5776 107.12 27.607 107.146 27.6315C107.195 27.6802 107.262 27.7079 107.331 27.7089C107.4 27.7051 107.466 27.6778 107.517 27.6315L108.584 26.5563C108.61 26.5324 108.63 26.5037 108.644 26.4717C108.657 26.4398 108.664 26.4054 108.664 26.3706C108.664 26.3359 108.657 26.3015 108.644 26.2696C108.63 26.2376 108.61 26.2088 108.584 26.185C108.535 26.1359 108.468 26.1083 108.399 26.1083C108.329 26.1083 108.262 26.1359 108.213 26.185Z" fill="#BBBFC9"/>
<path d="M108.213 27.0746L107.594 27.6857C107.547 27.7373 107.52 27.805 107.52 27.8753C107.52 27.9456 107.547 28.0133 107.594 28.0648C107.645 28.1144 107.713 28.1422 107.784 28.1422C107.855 28.1422 107.923 28.1144 107.974 28.0648L108.585 27.4459C108.61 27.4221 108.63 27.3933 108.644 27.3614C108.658 27.3295 108.665 27.2951 108.665 27.2603C108.665 27.2255 108.658 27.1911 108.644 27.1592C108.63 27.1273 108.61 27.0985 108.585 27.0746C108.535 27.0255 108.469 26.9979 108.399 26.9979C108.329 26.9979 108.263 27.0255 108.213 27.0746Z" fill="#BBBFC9"/>
<path d="M111.106 31.3369C111.174 31.3359 111.24 31.3112 111.292 31.2672L112.584 29.9677C112.61 29.9439 112.632 29.9148 112.647 29.8823C112.662 29.8499 112.671 29.8146 112.672 29.7788C112.673 29.743 112.667 29.7073 112.653 29.674C112.64 29.6407 112.62 29.6104 112.595 29.5851C112.57 29.5597 112.539 29.5398 112.506 29.5266C112.473 29.5134 112.437 29.5071 112.401 29.5082C112.365 29.5092 112.33 29.5176 112.298 29.5328C112.265 29.5479 112.236 29.5696 112.212 29.5964L110.92 30.8882C110.884 30.925 110.859 30.9718 110.849 31.0227C110.839 31.0736 110.844 31.1264 110.864 31.1744C110.884 31.2224 110.917 31.2634 110.96 31.2923C111.003 31.3212 111.054 31.3367 111.106 31.3369Z" fill="#BBBFC9"/>
<path d="M112.375 30.4628L111.299 31.538C111.25 31.5873 111.223 31.6541 111.223 31.7237C111.223 31.7933 111.25 31.86 111.299 31.9093C111.352 31.9585 111.421 31.9861 111.493 31.9867C111.56 31.9845 111.623 31.9568 111.671 31.9093L112.746 30.8341C112.79 30.7839 112.814 30.7187 112.812 30.6516C112.81 30.5846 112.783 30.5208 112.735 30.4734C112.688 30.426 112.624 30.3984 112.557 30.3965C112.49 30.3945 112.425 30.4182 112.375 30.4628Z" fill="#BBBFC9"/>
<path d="M112.375 31.3755L111.756 31.9944C111.732 32.0193 111.712 32.0487 111.699 32.081C111.686 32.1134 111.68 32.1479 111.68 32.1828C111.681 32.2176 111.688 32.252 111.701 32.2841C111.715 32.3161 111.735 32.3452 111.76 32.3696C111.785 32.3939 111.814 32.4132 111.846 32.4262C111.879 32.4392 111.913 32.4457 111.948 32.4453C111.983 32.445 112.017 32.4378 112.05 32.4241C112.082 32.4104 112.111 32.3906 112.135 32.3657L112.746 31.7546C112.794 31.7031 112.821 31.6354 112.821 31.5651C112.821 31.4948 112.794 31.4271 112.746 31.3755C112.697 31.3264 112.63 31.2988 112.56 31.2988C112.491 31.2988 112.424 31.3264 112.375 31.3755Z" fill="#BBBFC9"/>
<path d="M73.9677 30.3312C74.0013 30.3304 74.0339 30.3197 74.0615 30.3004C74.089 30.2812 74.1102 30.2542 74.1224 30.2229C74.1394 30.1935 74.1483 30.1601 74.1483 30.1262C74.1483 30.0922 74.1394 30.0589 74.1224 30.0295C74.002 29.8466 73.8409 29.6941 73.6516 29.5841C73.4624 29.474 73.2502 29.4093 73.0317 29.3952C72.2581 29.3952 71.6548 30.4085 71.4072 31.066C71.0282 30.9191 70.0535 30.3389 69.4347 29.9753L68.6611 29.5112C68.8832 29.3599 69.0621 29.1534 69.1801 28.9119C69.2981 28.6705 69.3512 28.4025 69.3341 28.1343C69.4114 26.4479 68.1815 23.957 65.9923 23.7559L64.8629 23.6167C64.2253 23.5149 63.582 23.4529 62.9368 23.431C61.7842 23.431 60.2603 23.7327 60.2603 26.3241C60.2611 26.3681 60.2769 26.4104 60.305 26.4441C60.3332 26.4778 60.3719 26.501 60.415 26.5098C61.8513 26.7327 63.3113 26.7587 64.7546 26.5871C64.8873 28.0037 64.7748 29.4325 64.422 30.8108C64.4091 30.8359 64.4024 30.8638 64.4024 30.892C64.4024 30.9202 64.4091 30.9481 64.422 30.9732C64.4419 30.994 64.466 31.0103 64.4926 31.0209C64.5193 31.0316 64.548 31.0364 64.5767 31.0351C65.3338 31.0546 66.0586 31.3456 66.6189 31.8551C67.3099 32.4296 68.1493 32.797 69.0401 32.9149C68.9138 33.3229 68.8873 33.7553 68.9628 34.1758C68.9674 34.2022 68.9782 34.2273 68.9943 34.2488C69.0105 34.2703 69.0315 34.2877 69.0556 34.2995C69.1053 34.3193 69.1607 34.3193 69.2103 34.2995C69.7982 34.0829 70.1618 34.1835 70.3552 34.6631C70.3615 34.7576 70.3936 34.8486 70.448 34.9261V34.9648C70.4707 34.989 70.5005 35.0052 70.5331 35.0112C70.5581 35.0122 70.5831 35.0082 70.6065 34.9993C70.63 34.9905 70.6513 34.977 70.6694 34.9596C70.6875 34.9423 70.7018 34.9215 70.7117 34.8984C70.7215 34.8754 70.7265 34.8506 70.7265 34.8255C70.9508 33.8044 71.941 33.7194 73.0472 33.7194H73.4726C73.5219 33.7194 73.5691 33.6998 73.6039 33.665C73.6387 33.6302 73.6583 33.5829 73.6583 33.5337C73.6583 33.5093 73.6536 33.4851 73.6443 33.4626C73.635 33.44 73.6214 33.4195 73.6041 33.4022C73.3883 32.4656 73.4257 31.4884 73.7124 30.571C73.7743 30.4163 73.8517 30.3234 73.9136 30.3234" fill="#BBBFC9"/>
<path d="M49.3685 8.93454C49.5932 8.96171 49.8156 9.00566 50.0337 9.06605C50.5395 9.20205 51.058 9.28501 51.5809 9.31359C52.0759 9.31359 52.2925 9.1434 52.3544 8.96549C52.7103 9.15887 52.6793 9.47603 52.6097 9.93243C52.5598 10.0819 52.5457 10.2409 52.5686 10.3968C52.5914 10.5526 52.6505 10.7009 52.7412 10.8298C52.7599 10.8494 52.7829 10.8645 52.8084 10.8739C52.8339 10.8833 52.8612 10.8867 52.8882 10.8839C52.9167 10.8825 52.9443 10.874 52.9687 10.8591C52.993 10.8443 53.0132 10.8235 53.0274 10.7988C53.3249 10.2974 53.4849 9.7264 53.4916 9.1434C53.499 8.64787 53.6349 8.16275 53.8861 7.73553C54.7834 7.73553 55.3558 7.98307 55.5956 8.43173C56.2841 9.72357 54.3193 12.6554 52.8727 14.7904C52.2972 15.5561 51.8046 16.3807 51.4029 17.2503C51.2421 18.1293 51.2708 19.0325 51.4869 19.8996C51.703 20.7667 52.1016 21.5777 52.6561 22.2784C53.2098 22.9022 53.9152 23.3724 54.7039 23.6434C55.4927 23.9145 56.3381 23.9772 57.1582 23.8255C56.5152 24.6416 56.0679 25.5943 55.8509 26.6103C55.4719 27.9099 55.1702 28.931 53.8087 28.931C53.3272 28.9185 52.8503 28.8351 52.3931 28.6835C52.3675 28.6722 52.3398 28.6664 52.3119 28.6664C52.2839 28.6664 52.2562 28.6722 52.2306 28.6835C52.2068 28.6998 52.1873 28.7218 52.1738 28.7474C52.1603 28.773 52.1533 28.8015 52.1533 28.8305C52.1533 29.4493 52.2074 29.9599 52.2461 30.3776C52.3683 31.108 52.3393 31.8557 52.161 32.5745C52.1527 32.6056 52.1525 32.6384 52.1607 32.6696C52.1688 32.7008 52.1849 32.7293 52.2074 32.7524C52.228 32.7763 52.2548 32.794 52.2849 32.8036C52.3149 32.8132 52.347 32.8142 52.3776 32.8065C52.5125 32.7783 52.6498 32.7628 52.7876 32.7601C52.9191 32.7601 53.0816 32.7601 53.1357 32.8684C53.1899 32.9767 53.2208 33.2088 52.7257 33.9824C52.7018 34.0104 52.6886 34.046 52.6886 34.0829C52.6886 34.1198 52.7018 34.1555 52.7257 34.1835C52.7448 34.216 52.7742 34.2412 52.8092 34.2552C52.8442 34.2692 52.8829 34.2712 52.9191 34.2608C53.0155 34.2367 53.1139 34.2211 53.2131 34.2144H53.2595C53.2595 34.3227 53.2131 34.4388 53.1976 34.5625C53.1821 34.6863 53.1202 34.9493 53.0661 35.1195C53.0594 35.1465 53.0594 35.1747 53.0662 35.2017C53.0729 35.2286 53.0862 35.2535 53.1048 35.2742C53.124 35.3052 53.1545 35.3274 53.1899 35.3361C54.4249 36.5847 55.5798 37.9101 56.6477 39.3044C56.6652 39.3319 56.6891 39.3547 56.7174 39.3709C56.7457 39.3871 56.7775 39.3961 56.8101 39.3973C56.8444 39.3952 56.8775 39.3842 56.906 39.3651C56.9346 39.3461 56.9575 39.3198 56.9726 39.289C57.4908 37.9971 58.4578 37.6954 59.9121 38.3065H59.9817C60.0061 38.3065 60.0302 38.3017 60.0528 38.2924C60.0753 38.2831 60.0957 38.2694 60.113 38.2522C60.1302 38.2349 60.1439 38.2145 60.1532 38.1919C60.1626 38.1694 60.1674 38.1453 60.1674 38.1209C60.1663 38.0792 60.1529 38.0388 60.1287 38.0049C59.6955 37.1617 59.7574 36.8213 59.827 36.6975C59.8966 36.5738 60.2138 36.4732 60.6547 36.5274C60.7039 36.5274 60.7512 36.5078 60.786 36.473C60.8208 36.4382 60.8404 36.3909 60.8404 36.3417C60.8475 36.319 60.8475 36.2947 60.8404 36.2721C60.647 35.2742 60.1287 35.1272 59.827 35.1272C59.5673 35.159 59.3185 35.2502 59.0998 35.3938C58.8812 35.5373 58.6985 35.7293 58.5661 35.9549C58.2217 36.0094 57.8689 35.9606 57.5522 35.8147C57.2355 35.6687 56.9692 35.4322 56.7869 35.135C56.5826 34.6828 56.49 34.1882 56.5169 33.6927C56.5438 33.1973 56.6895 32.7156 56.9416 32.2883C57.0553 32.0462 57.2298 31.8377 57.448 31.6831C57.6663 31.5285 57.9209 31.4332 58.1871 31.4064C58.5302 31.4607 58.8561 31.5938 59.1393 31.7951C59.4225 31.9964 59.6552 32.2605 59.8193 32.5667C59.8393 32.5983 59.8687 32.6228 59.9034 32.6367C59.9382 32.6506 59.9764 32.6532 60.0126 32.6441C60.0498 32.6333 60.0832 32.6124 60.1091 32.5837C60.1351 32.555 60.1526 32.5197 60.1596 32.4817C60.2235 31.423 60.182 30.3606 60.0359 29.3101C59.7883 26.8966 59.5408 24.398 61.5211 23.0288C62.437 22.4098 63.3846 21.8392 64.36 21.3192C66.1391 20.4777 67.7206 19.2705 69.0014 17.7763C69.2025 17.9001 69.4191 18.0161 69.6357 18.1244C70.6259 18.6427 71.1828 19.014 70.9353 19.6715C70.9183 19.7009 70.9094 19.7343 70.9094 19.7682C70.9094 19.8022 70.9183 19.8355 70.9353 19.8649C70.9551 19.892 70.9831 19.9119 71.0152 19.9217C71.0473 19.9315 71.0817 19.9306 71.1132 19.9191H71.1674C71.9235 19.9068 72.6771 20.0085 73.4029 20.2208C73.2659 20.3801 73.1753 20.5741 73.1412 20.7815C73.1071 20.9889 73.1307 21.2017 73.2095 21.3966C73.3005 21.5818 73.4413 21.7379 73.6163 21.8473C73.7913 21.9566 73.9934 22.0149 74.1997 22.0154C74.4555 22.0113 74.6995 21.9069 74.8789 21.7245C75.0584 21.5422 75.159 21.2966 75.1589 21.0407C75.7855 21.1954 77.7271 21.7679 77.9283 21.8143C77.9713 21.8261 78.0167 21.8261 78.0598 21.8143C78.094 21.8023 78.124 21.7805 78.146 21.7516C78.168 21.7227 78.181 21.6881 78.1835 21.6518C78.2918 20.2749 77.6498 20.1047 77.1315 19.981C76.9458 19.949 76.7691 19.8778 76.6132 19.7721C76.617 19.6486 76.5986 19.5255 76.5591 19.4085C77.4022 18.9289 77.3326 18.5885 77.1856 18.194C77.0928 17.9697 77.0309 17.7995 77.3868 17.4592C77.4093 17.4377 77.4256 17.4105 77.4337 17.3805C77.4419 17.3505 77.4417 17.3189 77.4332 17.289C77.4253 17.2575 77.4099 17.2284 77.3884 17.2042C77.3668 17.1799 77.3397 17.1612 77.3094 17.1497C76.59 16.9254 76.0949 16.9795 75.8319 17.3122C75.7309 17.4554 75.6608 17.6181 75.6262 17.7899C75.5915 17.9617 75.5931 18.1389 75.6308 18.3101C74.4472 18.1012 72.2581 16.3375 71.6005 14.744C71.451 14.4801 71.3822 14.1782 71.4028 13.8756C71.4235 13.573 71.5326 13.2832 71.7166 13.0421C72.0569 13.0421 72.0879 13.0808 72.3664 13.4057C72.3905 13.4333 72.4221 13.4531 72.4575 13.4627C72.4928 13.4723 72.5301 13.4712 72.5648 13.4596C72.5996 13.4481 72.6301 13.4265 72.6526 13.3976C72.6751 13.3688 72.6885 13.3339 72.6913 13.2974V12.957C72.7377 12.1061 72.7841 11.9127 73.1322 11.9127C73.3704 11.9257 73.6053 11.9752 73.8284 12.0597H73.8903C73.9395 12.0597 73.9867 12.0402 74.0216 12.0053C74.0564 11.9705 74.0759 11.9233 74.0759 11.8741C74.0848 11.8411 74.0848 11.8064 74.0759 11.7735C73.9424 11.3855 73.9072 10.9704 73.9733 10.5655C74.0395 10.1605 74.205 9.77821 74.455 9.45283C74.7481 8.98305 75.1427 8.58494 75.6099 8.28775C76.0771 7.99057 76.605 7.80187 77.1547 7.73553C77.2889 7.73222 77.4225 7.75319 77.5492 7.79741H77.6111C77.6603 7.79741 77.7076 7.77785 77.7424 7.74304C77.7772 7.70822 77.7967 7.661 77.7967 7.61176C77.7967 7.04706 77.5183 6.39727 76.3193 6.39727C76.0939 6.39788 75.8689 6.41598 75.6463 6.45142C75.7584 6.02823 75.9275 5.62226 76.1491 5.24467C76.463 4.67744 76.6751 4.05955 76.7757 3.41907C76.7804 3.39081 76.7779 3.36181 76.7684 3.33477C76.759 3.30772 76.7428 3.28351 76.7215 3.26436C76.7013 3.24456 76.6769 3.22944 76.6502 3.22009C76.6234 3.21073 76.595 3.20736 76.5668 3.21021C75.1899 3.36492 75.0197 3.79812 74.8804 4.39376C74.8588 4.61615 74.7747 4.82788 74.6378 5.00447C74.5009 5.18106 74.3169 5.31529 74.1069 5.39165C73.5809 4.96619 73.5809 4.94298 73.6195 4.78827C73.6933 4.52138 73.7091 4.24181 73.666 3.9683C73.6681 3.94367 73.6651 3.91886 73.6571 3.89545C73.6491 3.87205 73.6364 3.85056 73.6196 3.83237C73.6029 3.81417 73.5826 3.79966 73.5599 3.78977C73.5372 3.77988 73.5128 3.77482 73.488 3.77491C73.0085 3.69869 72.5177 3.80346 72.1111 4.06886C72.0852 4.08442 72.0634 4.10581 72.0472 4.13133C72.0311 4.15685 72.0212 4.1858 72.0183 4.21584C71.9949 4.46108 72.0305 4.70836 72.122 4.93709C72.2134 5.16583 72.3582 5.3694 72.5443 5.53089C72.846 5.84031 73.0626 6.06464 72.6526 6.99291C72.1024 8.00425 71.4036 8.92733 70.5794 9.73131C70.0636 10.2767 69.5782 10.85 69.1252 11.4486C68.8347 10.9784 68.4186 10.5989 67.9237 10.3528C67.4289 10.1068 66.8751 10.004 66.3249 10.0562H65.884C65.156 10.0951 64.4312 9.9346 63.7876 9.59207C63.8495 9.06605 64.0816 9.06605 64.2131 9.06605C64.4372 9.08505 64.658 9.13182 64.8706 9.20529C65.1191 9.29699 65.3797 9.35172 65.6441 9.36774C65.7436 9.37109 65.8429 9.35802 65.9381 9.32906C65.9694 9.31683 65.9971 9.29698 66.0187 9.27131C66.0403 9.24564 66.0551 9.21496 66.0619 9.18208C66.2553 8.09136 65.4972 7.89798 64.9015 7.751C64.3059 7.60402 63.8263 7.47252 63.6793 6.82273C64.8769 6.98724 66.0506 7.29366 67.1758 7.73553H67.2454C67.8197 7.57045 68.3231 7.21948 68.6765 6.73764C68.6872 6.72305 68.6929 6.70544 68.6929 6.68736C68.6929 6.66928 68.6872 6.65166 68.6765 6.63708C68.6661 6.62219 68.6522 6.61013 68.636 6.60202C68.6198 6.59392 68.6018 6.59001 68.5837 6.59066L68.0731 6.57519C67.6245 6.57519 67.1603 6.57519 66.7117 6.51331C66.263 6.45142 65.7911 6.45142 65.3425 6.45142C64.772 6.43688 64.2029 6.51259 63.6561 6.67575C63.6244 6.41888 63.6244 6.15907 63.6561 5.9022H64.3446H65.0098C65.2601 5.93562 65.5146 5.91493 65.7561 5.84153C65.9977 5.76813 66.2206 5.64373 66.41 5.47674C66.5945 5.19714 66.7164 4.88089 66.7671 4.54973C66.8179 4.21857 66.7963 3.88035 66.7039 3.55831C66.7004 3.51641 66.6822 3.4771 66.6524 3.44736C66.6227 3.41762 66.5834 3.39938 66.5415 3.39587C66.0696 3.34945 65.5823 3.32625 65.0949 3.32625C63.0219 3.37833 60.9657 3.71408 58.9838 4.32414C58.9447 4.33793 58.9099 4.36198 58.8833 4.39376C57.6224 6.11106 58.2721 10.0871 58.9838 11.8277C59.0766 12.0442 59.9894 13.3748 60.3685 13.9549C61.142 15.0302 61.436 15.5021 61.6062 15.7186C60.8679 16.9117 60.204 18.1492 59.6181 19.424C58.891 21.0098 57.7771 21.8839 56.4852 21.8839C55.9103 21.8593 55.3501 21.6942 54.8539 21.4029C54.3576 21.1116 53.9403 20.703 53.6385 20.213C53.2452 19.577 53.0154 18.8536 52.9695 18.1072C52.9236 17.3608 53.0631 16.6147 53.3755 15.9352C53.7819 15.1053 54.2445 14.3041 54.7602 13.5372C56.1526 11.3326 57.8544 8.58644 57.0809 6.66802C56.6477 5.65466 55.6034 4.9894 53.8783 4.6413H53.7932C53.1821 4.81148 52.7489 4.95072 52.4086 5.06675C51.6053 5.35118 50.7526 5.46961 49.9022 5.41485C49.8733 5.41482 49.8448 5.42185 49.8192 5.43533C49.7936 5.44881 49.7716 5.46833 49.7553 5.49221C49.7424 5.51734 49.7356 5.54518 49.7356 5.57343C49.7356 5.60168 49.7424 5.62952 49.7553 5.65466C49.9392 6.03195 50.2031 6.36457 50.5288 6.62934C50.8769 6.9465 51.3024 7.31781 51.3024 7.54987C51.3109 7.58547 51.3109 7.62258 51.3024 7.65817H51.256C50.9382 7.5869 50.6145 7.54546 50.289 7.5344C50.1289 7.51904 49.9674 7.53953 49.8162 7.59439C49.665 7.64925 49.5279 7.7371 49.4149 7.85156C49.3209 7.98026 49.2563 8.128 49.2256 8.28436C49.1948 8.44073 49.1987 8.60193 49.237 8.75662C49.2444 8.80033 49.2671 8.83995 49.3012 8.86832C49.3352 8.8967 49.3783 8.91196 49.4226 8.91134M67.2918 7.48799L67.1216 7.42611C67.1914 7.4317 67.2596 7.45006 67.3228 7.48025M63.1069 3.99151H63.5323L64.0506 3.94509C63.9655 4.32414 63.7412 4.46338 63.5246 4.46338C63.4086 4.46188 63.2959 4.42469 63.2018 4.35687C63.1077 4.28905 63.0367 4.19389 62.9986 4.08433C63.039 4.06858 63.0758 4.04491 63.1069 4.01471" fill="#BBBFC9"/>
<path d="M136.657 31.0584C136.417 30.4009 135.883 29.3875 135.032 29.3875C134.817 29.406 134.609 29.4735 134.424 29.5848C134.239 29.6961 134.082 29.8482 133.965 30.0296C133.95 30.0596 133.942 30.0927 133.942 30.1263C133.942 30.1598 133.95 30.1929 133.965 30.2229C133.979 30.2543 134.002 30.281 134.031 30.3002C134.059 30.3193 134.093 30.3301 134.127 30.3312C134.189 30.3312 134.259 30.4241 134.328 30.5788C134.61 31.4971 134.647 32.4729 134.437 33.41C134.418 33.4264 134.404 33.4467 134.394 33.4695C134.385 33.4923 134.381 33.5169 134.382 33.5415C134.382 33.5908 134.402 33.638 134.437 33.6728C134.472 33.7076 134.519 33.7272 134.568 33.7272H134.986C136.069 33.7272 137.059 33.8123 137.306 34.8334C137.306 34.8584 137.311 34.8832 137.321 34.9062C137.331 34.9293 137.345 34.9501 137.364 34.9674C137.382 34.9848 137.403 34.9983 137.426 35.0072C137.45 35.016 137.475 35.0201 137.5 35.019H137.539C137.57 35.0097 137.599 34.9939 137.624 34.9726V34.9339C137.676 34.8561 137.706 34.7649 137.709 34.6709C137.91 34.1913 138.273 34.0907 138.854 34.3073C138.906 34.3269 138.964 34.3269 139.016 34.3073C139.039 34.2951 139.059 34.2774 139.074 34.2559C139.089 34.2343 139.098 34.2095 139.101 34.1836C139.177 33.7631 139.15 33.3307 139.024 32.9227C139.917 32.8046 140.759 32.4373 141.453 31.8629C142.01 31.3539 142.733 31.0628 143.487 31.0429C143.516 31.0443 143.545 31.0394 143.571 31.0288C143.598 31.0181 143.622 31.0018 143.642 30.981C143.657 30.9566 143.665 30.9285 143.665 30.8998C143.665 30.8711 143.657 30.843 143.642 30.8186C143.292 29.4398 143.18 28.0115 143.309 26.595C144.753 26.7665 146.213 26.7405 147.649 26.5176C147.693 26.5102 147.732 26.4874 147.761 26.4534C147.789 26.4193 147.804 26.3763 147.804 26.332C147.804 23.7405 146.257 23.4388 145.135 23.4388C144.487 23.4603 143.841 23.5223 143.201 23.6245L142.079 23.7637C139.882 23.9649 138.652 26.4557 138.73 28.1421C138.713 28.4103 138.766 28.6783 138.884 28.9197C139.002 29.1612 139.181 29.3677 139.403 29.519L138.629 29.9831C137.991 30.3806 137.333 30.7447 136.657 31.0739" fill="#BBBFC9"/>
<path d="M81.9974 61.0646L83.5445 61.7453L82.4461 68.6145L81.1078 68.073L81.4018 66.6419L79.7618 65.9225L78.9032 67.0597L77.6113 66.5259L81.9974 61.0646ZM80.4503 64.9324L81.657 65.4661L82.2836 62.4338L80.4503 64.9324Z" fill="#BBBFC9"/>
<path d="M91.775 64.4838L94.2349 64.9556C94.4738 64.9691 94.7066 65.0364 94.9157 65.1526C95.1249 65.2688 95.3051 65.4308 95.4428 65.6266C95.5804 65.8223 95.672 66.0466 95.7107 66.2827C95.7493 66.5189 95.7341 66.7607 95.666 66.9901C95.5035 67.8719 95.0394 68.398 94.2504 68.4134C95.1322 68.7074 95.1786 69.2334 94.9311 70.6336C94.8073 71.3298 94.7764 71.7011 95.0007 71.879V71.9409L93.5542 71.6624C93.4834 71.4278 93.4834 71.1776 93.5542 70.943L93.763 69.6666C93.8326 69.1406 93.6625 68.7847 93.1287 68.6764L92.417 68.5449L91.8833 71.3375L90.5063 71.09L91.775 64.4838ZM92.5485 67.6244L93.1055 67.7327C93.2344 67.7799 93.3726 67.7964 93.5091 67.7808C93.6455 67.7652 93.7764 67.718 93.8913 67.6428C94.0063 67.5677 94.1021 67.4668 94.1711 67.3481C94.2402 67.2294 94.2806 67.0962 94.289 66.9591C94.3287 66.8356 94.3391 66.7045 94.3193 66.5763C94.2996 66.448 94.2502 66.3261 94.1751 66.2203C94.1 66.1144 94.0013 66.0275 93.8869 65.9665C93.7724 65.9054 93.6452 65.8718 93.5155 65.8684L92.8889 65.7524L92.5485 67.6244Z" fill="#BBBFC9"/>
<path d="M104.921 65.791L103.56 65.8074L103.641 72.5368L105.002 72.5204L104.921 65.791Z" fill="#BBBFC9"/>
<path d="M115.732 66.6962C115.531 65.737 115.245 65.3657 114.649 65.4972C114.054 65.6287 113.961 66.3404 114.363 68.2047C114.788 70.1927 115.136 70.5253 115.724 70.3706C116.312 70.2159 116.498 69.9452 116.189 68.5296L117.511 68.2433C117.821 69.6589 117.736 70.9585 115.964 71.3376C113.968 71.763 113.419 70.4016 112.986 68.398C112.553 66.3945 112.499 64.9248 114.487 64.5303C116.475 64.1357 116.807 65.4817 117.032 66.4409L115.732 66.6962Z" fill="#BBBFC9"/>
<path d="M124.543 61.3663L126.09 60.6547L130.554 65.9999L129.269 66.5956L128.388 65.443L126.763 66.2165L127.08 67.6322L125.804 68.2355L124.543 61.3663ZM126.477 65.0949L127.668 64.5379L125.804 62.0625L126.477 65.0949Z" fill="#BBBFC9"/>
<path d="M11.0619 109.691V91.1253C11.0619 89.8025 11.2398 87.8222 11.2398 87.8222L7.03164 109.691H5.34529L1.12939 87.8608C1.12939 87.8608 1.31505 89.8798 1.31505 91.1639V109.729H0V85.8109H2.01899L5.71659 105.413C5.89451 106.434 6.18847 108.229 6.18847 108.229C6.18847 108.229 6.45147 106.473 6.66807 105.413L10.3657 85.8109H12.3769V109.691H11.0619Z" fill="#BBBFC9"/>
<path d="M19.9576 109.985C17.2114 109.985 15.7881 108.19 15.7881 104.825V85.8109H17.1418V104.825C17.1418 107.385 18.0159 108.693 19.9576 108.693C21.8992 108.693 22.7811 107.409 22.7811 104.825V85.8109H24.1348V104.825C24.1348 108.19 22.7037 109.985 19.9576 109.985Z" fill="#BBBFC9"/>
<path d="M34.4615 109.691L28.6753 88.7427C28.7864 89.7033 28.8484 90.6689 28.8609 91.6358V109.691H27.5459V85.8109H29.1472L34.9334 106.651C34.9334 106.651 34.7555 105.103 34.7555 103.757V85.8109H36.0782V109.691H34.4615Z" fill="#BBBFC9"/>
<path d="M41.0915 85.8109H39.7378V109.691H41.0915V85.8109Z" fill="#BBBFC9"/>
<path d="M48.3784 109.984C45.6323 109.984 44.3481 108.12 44.3481 104.825V90.6842C44.3481 87.3889 45.6323 85.5168 48.3784 85.5168C51.1245 85.5168 52.4086 87.3502 52.4086 90.6842V92.0534H51.0549V90.6997C51.0549 88.2862 50.2813 86.8319 48.3784 86.8319C46.4754 86.8319 45.7019 88.263 45.7019 90.6997V104.84C45.7019 107.254 46.4754 108.708 48.3784 108.708C50.2813 108.708 51.0549 107.277 51.0549 104.84V103.479H52.4086V104.84C52.4086 108.174 51.1245 110 48.3784 110" fill="#BBBFC9"/>
<path d="M56.6169 85.8109H55.2632V109.691H56.6169V85.8109Z" fill="#BBBFC9"/>
<path d="M63.9113 99.6267H61.7453V109.683H60.3916V85.8109H63.9113C66.9127 85.8109 68.1891 87.7525 68.1891 90.87V94.5676C68.1891 97.6618 66.9127 99.6267 63.9113 99.6267ZM66.8353 90.9396C66.8353 88.3404 65.8452 87.0718 63.8339 87.0718H61.7453V98.3193H63.8339C65.8452 98.3193 66.8353 97.1049 66.8353 94.5057V90.9396Z" fill="#BBBFC9"/>
<path d="M76.4274 109.691L75.3289 103.355H70.3472L69.2487 109.691H67.895L72.1419 85.8109H73.542L77.8585 109.691H76.4274ZM73.3331 91.8215C73.0701 90.2743 72.8535 87.4276 72.8535 87.4276C72.8535 87.4276 72.6369 90.2434 72.3817 91.8215L70.5715 102.11H75.1123L73.3331 91.8215Z" fill="#BBBFC9"/>
<path d="M79.6919 109.691V85.8109H81.0456V108.376H85.9113V109.691H79.6919Z" fill="#BBBFC9"/>
<path d="M89.323 85.8109H87.9692V109.691H89.323V85.8109Z" fill="#BBBFC9"/>
<path d="M97.1205 109.691H92.9819V85.8109H97.1205C100.13 85.8109 101.406 87.7525 101.406 90.87V104.639C101.406 107.734 100.13 109.691 97.1205 109.691ZM100.052 90.9396C100.052 88.3404 99.0621 87.0718 97.0509 87.0718H94.3743V108.376H97.0895C99.1008 108.376 100.091 107.169 100.091 104.57L100.052 90.9396Z" fill="#BBBFC9"/>
<path d="M111.393 109.691L110.294 103.355H105.313L104.214 109.691H102.86L107.107 85.8109H108.5L112.816 109.691H111.393ZM108.298 91.8215C108.043 90.2743 107.819 87.4276 107.819 87.4276C107.819 87.4276 107.602 90.2434 107.339 91.8215L105.506 102.11H110.047L108.298 91.8215Z" fill="#BBBFC9"/>
<path d="M118.765 109.691H114.626V85.8109H118.765C121.774 85.8109 123.05 87.7525 123.05 90.87V104.639C123.05 107.734 121.774 109.691 118.765 109.691ZM121.696 90.9396C121.696 88.3404 120.706 87.0718 118.695 87.0718H115.98V108.376H118.695C120.706 108.376 121.696 107.169 121.696 104.57V90.9396Z" fill="#BBBFC9"/>
<path d="M136.308 109.691H132.17V85.8109H136.308C139.31 85.8109 140.594 87.7525 140.594 90.87V104.639C140.594 107.734 139.31 109.691 136.308 109.691ZM139.24 90.9396C139.24 88.3404 138.25 87.0718 136.231 87.0718H133.524V108.376H136.231C138.25 108.376 139.24 107.169 139.24 104.57V90.9396Z" fill="#BBBFC9"/>
<path d="M143.851 109.691V85.8109H150.078V87.095H145.205V96.6949H149.529V97.9712H145.205V108.376H150.078V109.691H143.851Z" fill="#BBBFC9"/>
<path d="M163.917 109.691L163.143 103.58H159.632L158.858 109.691H155.671L159.353 85.8109H163.484L167.089 109.691H163.917ZM161.867 93.794C161.65 92.0767 161.426 89.1527 161.426 89.1527H161.357C161.357 89.1527 161.14 92.1231 160.916 93.794L160.034 100.973H162.749L161.867 93.794Z" fill="#BBBFC9"/>
<path d="M175.597 109.691V101.638C175.597 100.137 174.971 99.1857 173.656 99.1857H171.9V109.691H168.744V85.8109H173.656C177.276 85.8109 178.746 88.0078 178.746 91.1639V94.0957C178.771 94.8162 178.601 95.53 178.252 96.1609C177.903 96.7917 177.389 97.3159 176.765 97.6773C178.08 98.2343 178.746 99.8046 178.746 101.638V109.691H175.597ZM175.597 91.1253C175.597 89.6246 174.971 88.6653 173.656 88.6653H171.9V96.5402H173.656C174.971 96.5402 175.597 95.5964 175.597 94.0957V91.1253Z" fill="#BBBFC9"/>
<path d="M184.826 85.8109H181.678V109.691H184.826V85.8109Z" fill="#BBBFC9"/>
<path d="M192.74 109.984C189.591 109.984 187.766 108.12 187.766 104.856V90.6455C187.766 87.3889 189.591 85.5168 192.74 85.5168C195.888 85.5168 197.683 87.3889 197.683 90.6455V93.3607H194.534V90.8312C194.534 89.1448 193.915 88.379 192.74 88.379C191.564 88.379 190.914 89.1526 190.914 90.8312V104.678C190.914 106.364 191.572 107.13 192.74 107.13C193.908 107.13 194.534 106.357 194.534 104.678V102.148H197.683V104.856C197.683 108.12 195.888 109.984 192.74 109.984Z" fill="#BBBFC9"/>
<path d="M206.842 109.691L206.068 103.58H202.549L201.775 109.691H198.588L202.247 85.8109H206.385L210.013 109.691H206.842ZM204.792 93.794C204.567 92.0767 204.351 89.1527 204.351 89.1527H204.281C204.281 89.1527 204.057 92.1231 203.84 93.794L202.958 100.973H205.674L204.792 93.794Z" fill="#BBBFC9"/>
</svg>
