<svg width="22" height="29" viewBox="0 0 22 29" fill="none" xmlns="http://www.w3.org/2000/svg">
<path d="M1.66857 16.2187L1.72201 16.3013L1.92117 16.583L9.53296 27.5417C9.6429 27.697 9.7885 27.8238 9.95754 27.9112C10.1266 27.9987 10.3141 28.0444 10.5045 28.0444C10.6948 28.0444 10.8824 27.9987 11.0514 27.9112C11.2205 27.8238 11.366 27.697 11.476 27.5417L19.0878 16.6024L19.3015 16.2964L19.3501 16.2235C20.3761 14.6355 20.955 12.8002 21.0258 10.9109C21.0967 9.02157 20.657 7.14809 19.7529 5.48762C18.8488 3.82715 17.5138 2.44111 15.8884 1.4754C14.2629 0.509681 12.4073 0 10.5166 0C8.62597 0 6.77028 0.509681 5.14488 1.4754C3.51947 2.44111 2.18446 3.82715 1.28036 5.48762C0.376265 7.14809 -0.0634869 9.02157 0.00739498 10.9109C0.0782769 12.8002 0.657171 14.6355 1.68315 16.2235L1.66857 16.2187Z" fill="#2A49FC"/>
<path d="M16.8436 13.5082H16.0275V6.22186C16.0275 6.11533 16.0065 6.00984 15.9657 5.91142C15.925 5.813 15.8652 5.72357 15.7899 5.64824C15.7146 5.57292 15.6251 5.51316 15.5267 5.47239C15.4283 5.43163 15.3228 5.41064 15.2163 5.41064H8.74116C8.52601 5.41064 8.31968 5.49611 8.16755 5.64824C8.01541 5.80038 7.92995 6.00671 7.92995 6.22186V7.03307H5.50117C5.28602 7.03307 5.07969 7.11854 4.92755 7.27067C4.77542 7.4228 4.68995 7.62914 4.68995 7.84428V13.5082H3.8836C3.66845 13.5082 3.46212 13.5937 3.30999 13.7458C3.15785 13.8979 3.07239 14.1043 3.07239 14.3194C3.07239 14.5346 3.15785 14.7409 3.30999 14.893C3.46212 15.0452 3.66845 15.1306 3.8836 15.1306H16.8436C17.0587 15.1306 17.265 15.0452 17.4172 14.893C17.5693 14.7409 17.6548 14.5346 17.6548 14.3194C17.6548 14.1043 17.5693 13.8979 17.4172 13.7458C17.265 13.5937 17.0587 13.5082 16.8436 13.5082ZM7.92509 13.5082H6.31238V8.65064H7.9348L7.92509 13.5082ZM14.4099 13.5082H9.55237V7.02335H14.4099V13.5082Z" fill="white"/>
</svg>
